#!OML:ASF I:\Random Stuff\random\construction\7_22_03\Session 2\subj1.ASF
:FULLY-SPECIFIED
:DEGREES
627
root -10.1136 17.7103 -6.14089 -183.003 103.562 -200.033
lowerback 14.3297 2.25941 -3.06004
upperback 3.8388 2.56516 -3.01286
thorax -3.95572 1.35354 -1.88869
lowerneck -13.3909 3.48795 3.84626
upperneck 42.2054 7.28479 -1.52363
head 18.2714 3.84224 0.129486
rclavicle 0 -1.59028e-015
rhumerus -26.3972 36.309 -92.8316
rradius 72.7452
rwrist -3.15225
rhand -41.1968 23.688
rfingers 7.12502
rthumb -14.1213 -5.81212
lclavicle 0 -1.59028e-015
lhumerus 6.00553 -31.8762 78.2259
lradius 44.3388
lwrist -14.1689
lhand -21.5841 53.8447
lfingers 7.12502
lthumb 4.81039 83.7701
rfemur -20.7317 7.10232 14.6293
rtibia 3.2545
rfoot 2.0374 -8.80442
rtoes -22.7866
lfemur -30.943 -2.25692 -8.99342
ltibia 27.3408
lfoot -14.232 12.3547
ltoes -27.0163
628
root -10.1081 17.7109 -6.14538 -183.676 103.19 -200.459
lowerback 14.5967 2.12834 -2.88006
upperback 3.96622 2.41921 -2.96118
thorax -3.9622 1.28323 -1.91804
lowerneck -13.2187 3.58792 3.9179
upperneck 42.0041 7.4295 -1.61276
head 18.1201 3.90086 0.0921069
rclavicle 6.20208e-014 -1.11319e-014
rhumerus -26.9244 36.5045 -92.8868
rradius 73.992
rwrist -4.6676
rhand -41.2848 24.9002
rfingers 7.12502
rthumb -14.2061 -4.59398
lclavicle 6.20208e-014 -1.11319e-014
lhumerus 6.09426 -31.8571 78.2491
lradius 44.2752
lwrist -14.2051
lhand -21.5915 54.2277
lfingers 7.12502
lthumb 4.80326 84.1533
rfemur -20.2556 6.75401 14.739
rtibia 3.12418
rfoot 1.98836 -8.82312
rtoes -22.6139
lfemur -30.781 -2.60516 -8.97147
ltibia 27.3835
lfoot -14.2628 12.2708
ltoes -26.8472
629
root -10.1058 17.7065 -6.14711 -184.225 103.054 -200.957
lowerback 14.6626 2.05372 -2.7508
upperback 4.04487 2.34509 -2.90527
thorax -3.91323 1.24694 -1.91916
lowerneck -13.1151 3.65726 3.99269
upperneck 41.8602 7.56144 -1.77395
head 18.0279 3.94365 0.022218
rclavicle -1.27222e-014 3.97569e-014
rhumerus -27.4146 36.5971 -92.9992
rradius 75.1729
rwrist -4.77587
rhand -42.1658 26.5369
rfingers 7.12502
rthumb -15.0549 -2.8957
lclavicle -1.27222e-014 3.97569e-014
lhumerus 6.24094 -31.8042 78.196
lradius 44.1567
lwrist -14.2129
lhand -21.2687 54.5174
lfingers 7.12502
lthumb 5.11488 84.4357
rfemur -20.192 6.62213 14.8521
rtibia 3.24678
rfoot 1.86066 -8.86867
rtoes -22.4859
lfemur -30.7925 -2.69838 -8.89068
ltibia 27.4481
lfoot -14.2423 12.2341
ltoes -26.8057
630
root -10.1026 17.7065 -6.14896 -184.589 102.93 -201.317
lowerback 14.678 1.96771 -2.64472
upperback 4.09265 2.25192 -2.86349
thorax -3.8702 1.201 -1.91747
lowerneck -13.04 3.71935 4.00271
upperneck 41.8366 7.71413 -1.90273
head 18.0109 3.98975 -0.013239
rclavicle 0 -3.65764e-014
rhumerus -27.9359 36.5314 -93.1532
rradius 76.3903
rwrist -4.09376
rhand -43.2677 28.5046
rfingers 7.12502
rthumb -16.1161 -0.845294
lclavicle 0 -3.65764e-014
lhumerus 6.31796 -31.8144 78.086
lradius 44.1778
lwrist -14.1158
lhand -21.1251 54.6802
lfingers 7.12502
lthumb 5.25352 84.5951
rfemur -20.2631 6.49974 14.9261
rtibia 3.50785
rfoot 1.72425 -8.90777
rtoes -22.4805
lfemur -30.816 -2.80144 -8.83572
ltibia 27.4519
lfoot -14.2574 12.2152
ltoes -26.5666
631
root -10.0985 17.7075 -6.15156 -184.798 102.712 -201.476
lowerback 14.7345 1.82727 -2.61419
upperback 4.1572 2.07698 -2.80481
thorax -3.83595 1.11558 -1.84226
lowerneck -12.9883 3.81025 3.91139
upperneck 41.9137 7.9287 -1.94963
head 18.0519 4.0552 0.0215867
rclavicle -8.74653e-015 -2.54444e-014
rhumerus -28.3775 36.5298 -93.2586
rradius 77.5674
rwrist -3.12142
rhand -44.5533 30.6347
rfingers 7.12502
rthumb -17.3538 1.38939
lclavicle -8.74653e-015 -2.54444e-014
lhumerus 6.35458 -31.7101 78.0186
lradius 44.254
lwrist -14.019
lhand -21.3561 54.5757
lfingers 7.12502
lthumb 5.03051 84.496
rfemur -20.2244 6.28599 14.9417
rtibia 3.69597
rfoot 1.57029 -8.95198
rtoes -22.2208
lfemur -30.8179 -2.9876 -8.85202
ltibia 27.4671
lfoot -14.3333 12.1582
ltoes -26.3907
